<svg width="245" height="245" viewBox="0 0 245 245" fill="none" xmlns="http://www.w3.org/2000/svg">
<path d="M245 122.5C245 103.081 240.383 83.9395 231.53 66.6554C222.678 49.3713 209.842 34.4395 194.084 23.0917C178.325 11.7438 160.094 4.30506 140.895 1.38899C121.696 -1.52707 102.078 0.163088 83.6609 6.32007L122.5 122.5H245Z" fill="#74C5C0"/>
<path d="M165.024 80.8187C163.925 82.5116 162.427 83.4769 160.532 83.7145C158.644 83.9415 156.532 83.4405 154.197 82.2115L152.071 85.4855L149.883 84.0646L151.967 80.8545C149.404 79.1142 147.423 77.1767 146.024 75.042L148.762 70.8257C149.391 71.8851 150.241 73.0122 151.312 74.2071C152.393 75.409 153.424 76.3737 154.405 77.1014L157.62 72.1504L156.82 71.0403C155.251 68.8408 154.339 66.9696 154.085 65.4268C153.848 63.8803 154.196 62.3884 155.129 60.951C156.132 59.4072 157.556 58.5308 159.402 58.3219C161.266 58.1093 163.348 58.5984 165.648 59.789L167.234 57.3455L169.422 58.7664L167.877 61.1461C170.246 62.8359 172.132 64.757 173.535 66.9092L169.607 69.6714C168.388 67.9114 166.954 66.3898 165.305 65.1068L162.245 69.8182C163.803 71.965 164.828 73.6147 165.321 74.7673C165.824 75.9268 166.05 76.9893 165.998 77.9547C165.957 78.9271 165.632 79.8818 165.024 80.8187ZM160.061 77.9365C160.352 77.4893 160.416 76.9938 160.255 76.4499C160.093 75.906 159.758 75.234 159.248 74.4338L156.665 78.4105C158.272 79.1059 159.404 78.9479 160.061 77.9365ZM159.937 64.0728C159.632 64.5413 159.54 65.0336 159.659 65.5498C159.795 66.0623 160.121 66.7133 160.638 67.5029L163.075 63.7498C161.571 63.0601 160.524 63.1678 159.937 64.0728Z" fill="#47B8B1" fill-opacity="0.9"/>
<path d="M154.631 91.3838C156.51 92.1236 157.754 93.3984 158.365 95.2081C158.963 97.0131 158.894 99.1824 158.155 101.716L161.787 103.147L160.831 105.574L157.27 104.171C156.075 107.03 154.572 109.358 152.759 111.154L148.081 109.312C148.994 108.484 149.929 107.427 150.886 106.139C151.848 104.84 152.588 103.637 153.106 102.531L147.613 100.367L146.685 101.373C144.842 103.349 143.191 104.615 141.73 105.172C140.261 105.713 138.73 105.669 137.135 105.041C135.423 104.366 134.28 103.145 133.707 101.378C133.127 99.5938 133.191 97.4564 133.9 94.9655L131.189 93.8977L132.145 91.4703L134.785 92.5102C135.969 89.8518 137.475 87.6208 139.304 85.8171L142.794 89.1157C141.313 90.6606 140.107 92.369 139.179 94.2411L144.406 96.3C146.199 94.3456 147.611 93.0121 148.642 92.2994C149.678 91.5749 150.674 91.1418 151.631 91C152.592 90.8464 153.592 90.9744 154.631 91.3838ZM152.796 96.8216C152.3 96.6262 151.802 96.6618 151.301 96.9285C150.8 97.1952 150.209 97.658 149.526 98.317L153.938 100.055C154.299 98.3414 153.919 97.2636 152.796 96.8216ZM139.236 99.7078C139.756 99.9125 140.257 99.9052 140.739 99.6857C141.214 99.4499 141.787 99.0001 142.457 98.3365L138.294 96.6963C137.918 98.3085 138.232 99.3123 139.236 99.7078Z" fill="#47B8B1" fill-opacity="0.9"/>
<path d="M215.542 88.5889C216.281 90.467 216.198 92.2465 215.291 93.9273C214.379 95.5964 212.745 97.0247 210.388 98.2122L211.819 101.844L209.392 102.801L207.989 99.2393C205.083 100.315 202.356 100.803 199.805 100.703L197.963 96.0251C199.191 96.1282 200.602 96.0909 202.196 95.913C203.803 95.7305 205.187 95.4513 206.349 95.0755L204.185 89.583L202.817 89.5899C200.115 89.5899 198.062 89.2455 196.658 88.5568C195.262 87.8516 194.249 86.7017 193.621 85.1071C192.947 83.3944 193.06 81.7259 193.962 80.1016C194.871 78.4609 196.478 77.0501 198.783 75.8693L197.715 73.1585L200.143 72.2023L201.183 74.8423C203.934 73.8949 206.593 73.4751 209.16 73.5829L209.128 78.385C206.987 78.3549 204.916 78.6386 202.913 79.2363L204.972 84.4631C207.625 84.4417 209.563 84.5651 210.788 84.8332C212.024 85.0967 213.02 85.5298 213.776 86.1326C214.544 86.7307 215.132 87.5495 215.542 88.5889ZM210.313 90.9555C210.118 90.4594 209.752 90.1191 209.215 89.9348C208.679 89.7504 207.937 89.6334 206.989 89.5836L208.727 93.9954C210.227 93.0909 210.755 92.0776 210.313 90.9555ZM198.954 83.0064C199.159 83.5261 199.506 83.8874 199.995 84.0904C200.492 84.2769 201.211 84.3891 202.154 84.4271L200.514 80.2634C199.079 81.088 198.559 82.0024 198.954 83.0064Z" fill="#47B8B1" fill-opacity="0.9"/>
<path d="M189.736 99.8823C189.438 101.879 188.476 103.378 186.85 104.38C185.226 105.37 183.096 105.789 180.462 105.64L179.885 109.501L177.304 109.115L177.87 105.329C174.816 104.809 172.21 103.867 170.051 102.505L170.794 97.5328C171.806 98.236 173.047 98.9092 174.517 99.5524C175.999 100.198 177.337 100.648 178.532 100.903L179.404 95.0649L178.215 94.3867C175.876 93.0358 174.27 91.7111 173.399 90.4128C172.542 89.1038 172.24 87.6018 172.493 85.9067C172.766 84.0861 173.698 82.698 175.292 81.7423C176.899 80.776 178.996 80.3578 181.583 80.4876L182.013 77.606L184.594 77.9916L184.174 80.7978C187.031 81.3531 189.543 82.3191 191.712 83.6959L189.283 87.8384C187.445 86.7421 185.509 85.9522 183.476 85.4686L182.646 91.0246C184.953 92.3322 186.57 93.4082 187.497 94.2527C188.436 95.099 189.082 95.9721 189.435 96.8721C189.801 97.774 189.901 98.7774 189.736 99.8823ZM184.025 99.3176C184.104 98.7902 183.957 98.3126 183.585 97.8847C183.212 97.4568 182.628 96.9844 181.832 96.4676L181.132 101.157C182.882 101.124 183.847 100.51 184.025 99.3176ZM178.162 86.754C178.08 87.3064 178.2 87.7929 178.522 88.2133C178.859 88.623 179.426 89.08 180.223 89.5843L180.885 85.1583C179.229 85.1548 178.322 85.6867 178.162 86.754Z" fill="#47B8B1" fill-opacity="0.9"/>
<path d="M138.288 63.8481C138.978 65.7449 138.848 67.5216 137.897 69.1781C136.942 70.8227 135.271 72.2077 132.884 73.3332L134.22 77.0016L131.768 77.8939L130.459 74.2971C127.526 75.2969 124.787 75.7131 122.24 75.5458L120.521 70.8216C121.745 70.9568 123.157 70.9564 124.755 70.8203C126.366 70.68 127.757 70.4371 128.928 70.0919L126.909 64.5446L125.541 64.5157C122.84 64.4449 120.797 64.0469 119.412 63.3217C118.034 62.5802 117.052 61.4042 116.466 59.7937C115.837 58.0639 115.994 56.3989 116.938 54.7988C117.89 53.1824 119.533 51.8142 121.868 50.6942L120.872 47.9563L123.323 47.064L124.294 49.7303C127.069 48.8553 129.738 48.5053 132.301 48.6802L132.143 53.4798C130.004 53.3936 127.926 53.6231 125.909 54.1682L127.83 59.4471C130.482 59.4951 132.417 59.6691 133.634 59.9692C134.863 60.265 135.847 60.724 136.587 61.3464C137.339 61.9644 137.906 62.7983 138.288 63.8481ZM132.999 66.077C132.817 65.5759 132.46 65.2262 131.929 65.0279C131.397 64.8296 130.658 64.6931 129.713 64.6186L131.334 69.0743C132.857 68.2094 133.412 67.2103 132.999 66.077ZM121.852 57.8333C122.043 58.3582 122.381 58.7285 122.865 58.9442C123.356 59.1436 124.073 59.2746 125.014 59.3373L123.483 55.132C122.027 55.9188 121.483 56.8192 121.852 57.8333Z" fill="#47B8B1" fill-opacity="0.9"/>
<path d="M127.996 37.8245C126.484 39.162 124.783 39.692 122.893 39.4146C121.013 39.1287 119.112 38.0816 117.19 36.2732L114.266 38.8599L112.538 36.906L115.404 34.3697C113.399 32.0077 112.008 29.6112 111.23 27.1803L114.995 23.8491C115.318 25.038 115.836 26.3513 116.549 27.7889C117.27 29.236 118.005 30.4412 118.756 31.4044L123.177 27.4928L122.703 26.2091C121.779 23.6703 121.4 21.6236 121.567 20.0689C121.752 18.5153 122.486 17.1707 123.77 16.0351C125.149 14.8153 126.756 14.3515 128.59 14.6436C130.443 14.9368 132.318 15.9643 134.216 17.7263L136.398 15.7957L138.127 17.7496L136.002 19.6297C137.833 21.8912 139.137 24.2464 139.914 26.6952L135.39 28.3072C134.687 26.2856 133.711 24.4362 132.465 22.759L128.258 26.4814C129.185 28.9664 129.732 30.8301 129.899 32.0725C130.074 33.3243 130.008 34.4085 129.7 35.325C129.4 36.251 128.832 37.0842 127.996 37.8245ZM123.983 33.7208C124.383 33.3675 124.577 32.9072 124.567 32.34C124.557 31.7727 124.413 31.0354 124.136 30.1281L120.584 33.27C121.947 34.3697 123.08 34.5199 123.983 33.7208ZM127.568 20.328C127.15 20.6982 126.929 21.1478 126.906 21.677C126.9 22.2073 127.041 22.9219 127.328 23.8209L130.679 20.8556C129.413 19.7888 128.376 19.613 127.568 20.328Z" fill="#47B8B1" fill-opacity="0.9"/>
<path d="M152.124 51.2791C150.895 52.8805 149.327 53.7253 147.419 53.8135C145.519 53.8917 143.453 53.2265 141.221 51.8181L138.845 54.9152L136.775 53.327L139.105 50.2903C136.686 48.3542 134.863 46.2673 133.636 44.0294L136.696 40.041C137.24 41.1464 137.999 42.3368 138.973 43.612C139.957 44.895 140.909 45.9376 141.829 46.74L145.423 42.0566L144.712 40.8871C143.321 38.5713 142.559 36.6343 142.426 35.0763C142.311 33.516 142.776 32.056 143.819 30.6963C144.939 29.2359 146.428 28.474 148.285 28.4106C150.16 28.3449 152.197 28.9957 154.396 30.3632L156.169 28.0517L158.239 29.6399L156.512 31.8909C158.741 33.7614 160.471 35.8245 161.7 38.0802L157.567 40.5257C156.491 38.6755 155.181 37.0461 153.637 35.6376L150.217 40.0944C151.602 42.3569 152.494 44.0819 152.895 45.2696C153.306 46.465 153.448 47.5419 153.32 48.5004C153.203 49.4665 152.804 50.3928 152.124 51.2791ZM147.403 48.0163C147.728 47.5933 147.831 47.1044 147.712 46.5495C147.594 45.9947 147.312 45.2984 146.867 44.4606L143.98 48.2224C145.528 49.0419 146.669 48.9731 147.403 48.0163ZM148.366 34.1857C148.026 34.6288 147.895 35.1124 147.973 35.6363C148.069 36.1579 148.344 36.8325 148.797 37.6602L151.521 34.1099C150.075 33.3043 149.023 33.3295 148.366 34.1857Z" fill="#47B8B1" fill-opacity="0.9"/>
<path d="M191.349 44.4633C192.837 45.827 193.542 47.4631 193.463 49.3714C193.376 51.2712 192.533 53.2713 190.935 55.3718L193.814 58.0091L192.051 59.9326L189.229 57.3467C187.089 59.5876 184.852 61.2219 182.515 62.2494L178.809 58.853C179.957 58.4074 181.209 57.7553 182.565 56.8964C183.928 56.0281 185.05 55.1705 185.93 54.3234L181.577 50.3351L180.35 50.9413C177.922 52.1256 175.926 52.7159 174.362 52.7123C172.798 52.6908 171.384 52.1011 170.12 50.9432C168.763 49.6996 168.134 48.1501 168.233 46.2948C168.331 44.4215 169.156 42.4491 170.71 40.3775L168.562 38.4091L170.325 36.4856L172.417 38.4025C174.474 36.3449 176.68 34.8019 179.035 33.7736L181.111 38.1038C179.174 39.015 177.436 40.1781 175.899 41.5931L180.04 45.3883C182.415 44.2064 184.211 43.4676 185.429 43.1718C186.656 42.8666 187.741 42.8192 188.685 43.0296C189.637 43.2307 190.525 43.7085 191.349 44.4633ZM187.687 48.8823C187.294 48.5221 186.816 48.3767 186.253 48.4462C185.69 48.5157 184.971 48.7358 184.098 49.1064L187.594 52.3098C188.545 50.8396 188.576 49.6971 187.687 48.8823ZM173.993 46.7172C174.405 47.0945 174.875 47.2672 175.404 47.2351C175.932 47.1851 176.628 46.9705 177.492 46.5914L174.192 43.568C173.264 44.9384 173.197 45.9881 173.993 46.7172Z" fill="#47B8B1" fill-opacity="0.9"/>
<path d="M222.741 60.1061C223.72 61.8716 223.869 63.6468 223.19 65.4316C222.503 67.2053 221.07 68.8347 218.888 70.3197L220.781 73.7341L218.499 74.9989L216.643 71.6512C213.903 73.0974 211.262 73.9371 208.721 74.1702L206.284 69.7732C207.514 69.7152 208.908 69.4939 210.466 69.1095C212.035 68.7188 213.371 68.2614 214.474 67.7372L211.612 62.574L210.256 62.7595C207.577 63.1121 205.497 63.0386 204.015 62.539C202.539 62.0222 201.385 61.0143 200.554 59.5153C199.662 57.9053 199.556 56.2362 200.239 54.5081C200.926 52.7627 202.335 51.1543 204.466 49.6828L203.054 47.1345L205.335 45.8697L206.711 48.3513C209.315 47.0529 211.897 46.2896 214.456 46.0615L215.05 50.8267C212.924 51.0762 210.908 51.6279 209.001 52.4819L211.724 57.3952C214.351 57.0278 216.289 56.8971 217.538 57.0031C218.798 57.1029 219.842 57.4023 220.67 57.9013C221.509 58.3941 222.2 59.129 222.741 60.1061ZM217.867 63.1349C217.608 62.6685 217.201 62.379 216.645 62.2662C216.089 62.1535 215.338 62.1343 214.392 62.2086L216.691 66.3558C218.059 65.2633 218.451 64.1897 217.867 63.1349ZM205.567 56.7364C205.838 57.225 206.229 57.5379 206.741 57.6753C207.257 57.7954 207.986 57.8127 208.925 57.7273L206.756 53.8133C205.44 54.8182 205.044 55.7926 205.567 56.7364Z" fill="#47B8B1" fill-opacity="0.9"/>
</svg>
